<svg id="Layer_1" enable-background="new 0 0 512 512" height="512" viewBox="0 0 512 512" width="512" xmlns="http://www.w3.org/2000/svg"><path d="m504.88 194.615-19.87-13.25-14.15-35.38c-2.08-5.19-6.72-8.92-12.23-9.84l-39.96-6.66-12.36-24.72c-3.56-7.12-11.82-10.54-19.37-8.02-10.37 3.46-26.47 14.68-32.53 36.57-80.003-13.664-138.763-19.537-235.37-5.02-68.46 10.262-119.04 69.121-119.04 138.22v133.41c0 8.84 7.16 16 16 16h56c8.84 0 16-7.16 16-16v-48.87l7.92-7.13h11.24l13.22 59.47c1.63 7.32 8.12 12.53 15.62 12.53 41.893 0 41.976.343 45.4-.94 5.408-1.707 10.037-7.406 10.52-13.47.175-1.75.358 3.309-3.07-62.68 11.71-2.38 23.24-5.58 34.5-9.58-10.04 22.05-15.35 46.16-15.35 70.67 0 8.84 7.16 16 16 16 41.169 0 45.408 1.499 51.49-4.86 2.052-2.053 1.083-.731 18.72-33.69l1.44 20.13c.448 9.526 8.898 18.42 19.93 18.42 55.776 0 56.6 1.204 62.55-3.62 6.456-5.653 7.371-13.83 3.84-20.18-.938-1.706-.185-.62-21.97-27.24v-82.13l27.08-10.83h52.26c36.05 0 66.52-25.81 72.44-61.37 1.04-6.21-1.67-12.45-6.9-15.94z"/></svg>